<svg xmlns="http://www.w3.org/2000/svg" xmlns:xlink="http://www.w3.org/1999/xlink" height="20" style="enable-background:new 0 0 32 32;" version="1.1" width="28" xml:space="preserve"><rect id="backgroundrect" width="100%" height="100%" x="0" y="0" fill="none" stroke="none"/><g class="currentLayer" style=""><title>Layer 1</title><path d="M2,4 h24 c1.104,0 2,-0.8960000000000001 2,-2 s-0.8960000000000001,-2 -2,-2 H2 C0.8959999999999999,0 0,0.8959999999999999 0,2 S0.8959999999999999,4 2,4 zM26,8 H2 c-1.104,0 -2,0.8960000000000001 -2,2 s0.8960000000000001,2 2,2 h24 c1.104,0 2,-0.8960000000000001 2,-2 S27.104,8 26,8 zM26,16 H2 c-1.104,0 -2,0.8960000000000001 -2,2 s0.8960000000000001,2 2,2 h24 c1.104,0 2,-0.8960000000000001 2,-2 S27.104,16 26,16 z" id="svg_1" class=""/><path fill="#1a1aeb" fill-opacity="1" stroke="#1a1aeb" stroke-opacity="1" stroke-width="1" stroke-dasharray="none" stroke-linejoin="round" stroke-linecap="butt" stroke-dashoffset="" fill-rule="nonzero" opacity="1" marker-start="" marker-mid="" marker-end="" d="M1.6734689325044467,2.0204076359370795 C1.6734689325044467,1.783628237172728 7.230859489646095,1.5918369241736023 14.091835486117276,1.5918369241736023 C20.952811482588448,1.5918369241736023 26.510202039730103,1.783628237172728 26.510202039730103,2.0204076359370795 C26.510202039730103,2.257187034701433 20.952811482588448,2.448978347700558 14.091835486117276,2.448978347700558 C7.230859489646095,2.448978347700558 1.6734689325044467,2.257187034701433 1.6734689325044467,2.0204076359370795 z" id="svg_2" class=""/><path fill="#1a1aeb" fill-opacity="1" stroke="#1a1aeb" stroke-opacity="1" stroke-width="1" stroke-dasharray="none" stroke-linejoin="round" stroke-linecap="butt" stroke-dashoffset="" fill-rule="nonzero" opacity="1" marker-start="" marker-mid="" marker-end="" d="M1.755101546640191,9.938774947295531 C1.755101546640191,9.70199554853118 7.312492103781835,9.510204235532054 14.173468100253018,9.510204235532054 C21.034444096724187,9.510204235532054 26.591834653865845,9.70199554853118 26.591834653865845,9.938774947295531 C26.591834653865845,10.175554346059883 21.034444096724187,10.367345659059009 14.173468100253018,10.367345659059009 C7.312492103781835,10.367345659059009 1.755101546640191,10.175554346059883 1.755101546640191,9.938774947295531 z" class="" id="svg_3"/><path fill="#1a1aeb" fill-opacity="1" stroke="#1a1aeb" stroke-opacity="1" stroke-width="1" stroke-dasharray="none" stroke-linejoin="round" stroke-linecap="butt" stroke-dashoffset="" fill-rule="nonzero" opacity="1" marker-start="" marker-mid="" marker-end="" d="M1.7551034539888235,17.938775021801337 C1.7551034539888235,17.701995623036986 7.312494011130468,17.51020431003786 14.17347000760165,17.51020431003786 C21.03444600407282,17.51020431003786 26.59183656121448,17.701995623036986 26.59183656121448,17.938775021801337 C26.59183656121448,18.17555442056569 21.03444600407282,18.367345733564814 14.17347000760165,18.367345733564814 C7.312494011130468,18.367345733564814 1.7551034539888235,18.17555442056569 1.7551034539888235,17.938775021801337 z" class="" id="svg_4"/></g></svg>